{
  "accessors": [
    {
      "bufferView": 1,
      "componentType": 5126,
      "count": 315,
      "max": [
        3.8876237869262695,
        0.4884631335735321,
        0.06261521577835083
      ],
      "min": [
        -3.8478095531463623,
        -0.4884631335735321,
        -0.06261523067951202
      ],
      "type": "VEC3"
    },
    {
      "bufferView": 1,
      "byteOffset": 3780,
      "componentType": 5126,
      "count": 315,
      "max": [
        0.902869462966919,
        1.0,
        1.0
      ],
      "min": [
        -0.8360314965248108,
        -0.9209745526313782,
        -1.0
      ],
      "type": "VEC3"
    },
    {
      "bufferView": 0,
      "componentType": 5125,
      "count": 1869,
      "type": "SCALAR"
    },
    {
      "bufferView": 1,
      "byteOffset": 7560,
      "componentType": 5126,
      "count": 266,
      "max": [
        3.845661163330078,
        0.4779176115989685,
        0.18873609602451324
      ],
      "min": [
        1.4487971067428589,
        -0.22050482034683228,
        -0.18873609602451324
      ],
      "type": "VEC3"
    },
    {
      "bufferView": 1,
      "byteOffset": 10752,
      "componentType": 5126,
      "count": 266,
      "max": [
        0.9999991655349731,
        1.0,
        1.0
      ],
      "min": [
        -0.930069625377655,
        -0.9467418789863586,
        -1.0
      ],
      "type": "VEC3"
    },
    {
      "bufferView": 0,
      "byteOffset": 7476,
      "componentType": 5125,
      "count": 1572,
      "type": "SCALAR"
    },
    {
      "bufferView": 1,
      "byteOffset": 13944,
      "componentType": 5126,
      "count": 174,
      "max": [
        3.5796191692352295,
        0.3817209005355835,
        0.1945326328277588
      ],
      "min": [
        1.7963817119598389,
        0.18366442620754242,
        -0.1945326328277588
      ],
      "type": "VEC3"
    },
    {
      "bufferView": 1,
      "byteOffset": 16032,
      "componentType": 5126,
      "count": 174,
      "max": [
        0.9749295711517334,
        1.0,
        1.0
      ],
      "min": [
        -0.9749295711517334,
        -1.0,
        -1.0
      ],
      "type": "VEC3"
    },
    {
      "bufferView": 0,
      "byteOffset": 13764,
      "componentType": 5125,
      "count": 756,
      "type": "SCALAR"
    }
  ],
  "asset": {
    "extras": {
      "author": "hectopod (https://sketchfab.com/hectopod)",
      "license": "CC-BY-4.0 (http://creativecommons.org/licenses/by/4.0/)",
      "source": "https://sketchfab.com/3d-models/knife-b627a322d3ed498ab41059a0e7160417",
      "title": "knife"
    },
    "generator": "Sketchfab-12.66.0",
    "version": "2.0"
  },
  "bufferViews": [
    {
      "buffer": 0,
      "byteLength": 16788,
      "name": "floatBufferViews",
      "target": 34963
    },
    {
      "buffer": 0,
      "byteLength": 18120,
      "byteOffset": 16788,
      "byteStride": 12,
      "name": "floatBufferViews",
      "target": 34962
    }
  ],
  "buffers": [
    {
      "byteLength": 34908,
      "uri": "scene.bin"
    }
  ],
  "materials": [
    {
      "doubleSided": true,
      "name": "METAL",
      "pbrMetallicRoughness": {
        "baseColorFactor": [
          0.265539,
          0.265539,
          0.265539,
          1.0
        ],
        "roughnessFactor": 0.4602287097668507
      }
    },
    {
      "doubleSided": true,
      "name": "PLASTIC",
      "pbrMetallicRoughness": {
        "baseColorFactor": [
          0.0,
          0.0,
          0.0,
          1.0
        ]
      }
    },
    {
      "doubleSided": true,
      "name": "white"
    }
  ],
  "meshes": [
    {
      "name": "Object_0",
      "primitives": [
        {
          "attributes": {
            "NORMAL": 1,
            "POSITION": 0
          },
          "indices": 2,
          "material": 0,
          "mode": 4
        }
      ]
    },
    {
      "name": "Object_1",
      "primitives": [
        {
          "attributes": {
            "NORMAL": 4,
            "POSITION": 3
          },
          "indices": 5,
          "material": 1,
          "mode": 4
        }
      ]
    },
    {
      "name": "Object_2",
      "primitives": [
        {
          "attributes": {
            "NORMAL": 7,
            "POSITION": 6
          },
          "indices": 8,
          "material": 2,
          "mode": 4
        }
      ]
    }
  ],
  "nodes": [
    {
      "children": [
        1
      ],
      "matrix": [
        1.0,
        0.0,
        0.0,
        0.0,
        0.0,
        2.220446049250313e-16,
        -1.0,
        0.0,
        0.0,
        1.0,
        2.220446049250313e-16,
        0.0,
        0.0,
        0.0,
        0.0,
        1.0
      ],
      "name": "Sketchfab_model"
    },
    {
      "children": [
        2
      ],
      "name": "root"
    },
    {
      "children": [
        3
      ],
      "matrix": [
        1.0,
        0.0,
        0.0,
        0.0,
        0.0,
        2.220446049250313e-16,
        1.0,
        0.0,
        0.0,
        -1.0,
        2.220446049250313e-16,
        0.0,
        0.0,
        0.0,
        0.0,
        1.0
      ],
      "name": "GLTF_SceneRootNode"
    },
    {
      "children": [
        4,
        5,
        6
      ],
      "matrix": [
        0.610070359577677,
        -7.443946092866582e-08,
        -0.792347244814266,
        0.0,
        0.792347244814266,
        1.5126293484435394e-07,
        0.6100703595776626,
        0.0,
        7.443946092866582e-08,
        -0.9999999999999858,
        1.5126293484435394e-07,
        0.0,
        -0.2676262855529785,
        0.265702486038208,
        0.03138256072998047,
        1.0
      ],
      "name": "knife_0"
    },
    {
      "mesh": 0,
      "name": "Object_4"
    },
    {
      "mesh": 1,
      "name": "Object_5"
    },
    {
      "mesh": 2,
      "name": "Object_6"
    }
  ],
  "scene": 0,
  "scenes": [
    {
      "name": "Sketchfab_Scene",
      "nodes": [
        0
      ]
    }
  ]
}
